<svg id="Layer_1" data-name="Layer 1" xmlns="http://www.w3.org/2000/svg" xmlns:xlink="http://www.w3.org/1999/xlink" viewBox="0 0 1203 450"><defs><style>.cls-1,.cls-23,.cls-25,.cls-26,.cls-6{stroke-width:1.4px;}.cls-1{fill:url(#linear-gradient);stroke:url(#linear-gradient-2);}.cls-2{fill:url(#linear-gradient-3);}.cls-3{fill:#111827;stroke:#4b5563;}.cls-4{opacity:0.12;}.cls-5{fill:none;stroke:#1f2937;}.cls-6{fill:url(#linear-gradient-4);stroke:url(#linear-gradient-5);}.cls-7{fill:#f97373;}.cls-8{fill:#facc15;}.cls-9{fill:#4ade80;}.cls-10,.cls-13,.cls-17,.cls-21,.cls-24,.cls-29{isolation:isolate;}.cls-10,.cls-17,.cls-24{font-size:22px;}.cls-10,.cls-12,.cls-13,.cls-17,.cls-21,.cls-29{fill:#e5e7eb;}.cls-10{font-family:Helvetica;}.cls-11{letter-spacing:-0.05em;}.cls-13{font-size:18px;}.cls-13,.cls-21,.cls-24{font-family:ArialMT, Arial;}.cls-14{letter-spacing:-0.04em;}.cls-15{fill:#f26322;}.cls-16{fill:url(#linear-gradient-6);}.cls-17,.cls-29{font-family:MyriadPro-Regular, Myriad Pro;}.cls-18{letter-spacing:-0.01em;}.cls-19{letter-spacing:0.03em;}.cls-20{letter-spacing:-0.06em;}.cls-21{font-size:14px;}.cls-22{letter-spacing:-0.02em;}.cls-23{fill:url(#linear-gradient-7);stroke:url(#linear-gradient-8);}.cls-24{fill:#9ca3af;}.cls-25{fill:url(#linear-gradient-9);stroke:url(#linear-gradient-10);}.cls-26{fill:url(#linear-gradient-11);stroke:url(#linear-gradient-12);}.cls-27{opacity:0.7;}.cls-28{fill:url(#linear-gradient-13);}.cls-29{font-size:46px;}.cls-30{font-family:ArialHebrew-Bold, Arial Hebrew;font-weight:700;}.cls-31{letter-spacing:0em;}.cls-32{letter-spacing:0em;}.cls-33{letter-spacing:-0.01em;}</style><linearGradient id="linear-gradient" x1="0.7" y1="450.46" x2="1.7" y2="449.46" gradientTransform="matrix(620, 0, 0, -150, 104.23, 67629.82)" gradientUnits="userSpaceOnUse"><stop offset="0" stop-color="#111827" stop-opacity="0.9"/><stop offset="1" stop-color="#020617" stop-opacity="0.85"/></linearGradient><linearGradient id="linear-gradient-2" x1="0.7" y1="450.46" x2="1.7" y2="449.46" gradientTransform="matrix(620, 0, 0, -150, 104.23, 67629.82)" gradientUnits="userSpaceOnUse"><stop offset="0" stop-color="#38bdf8" stop-opacity="0.4"/><stop offset="1" stop-color="#6366f1" stop-opacity="0.2"/></linearGradient><linearGradient id="linear-gradient-3" x1="-203.23" y1="370.82" x2="996.77" y2="-79.18" gradientTransform="matrix(1, 0, 0, -1, 203.23, 370.82)" gradientUnits="userSpaceOnUse"><stop offset="0" stop-color="#020617"/><stop offset="0.5" stop-color="#020617"/><stop offset="1" stop-color="#0f172a"/></linearGradient><linearGradient id="linear-gradient-4" x1="0.55" y1="450.47" x2="1.55" y2="449.47" gradientTransform="matrix(450, 0, 0, -150, -185.77, 67629.82)" xlink:href="#linear-gradient"/><linearGradient id="linear-gradient-5" x1="0.55" y1="450.47" x2="1.55" y2="449.47" gradientTransform="matrix(450, 0, 0, -150, -185.77, 67629.82)" xlink:href="#linear-gradient-2"/><linearGradient id="linear-gradient-6" x1="-0.44" y1="449.18" x2="0.56" y2="448.18" gradientTransform="matrix(140, 0, 0, -44, 825, 19850)" gradientUnits="userSpaceOnUse"><stop offset="0" stop-color="#1d4ed8"/><stop offset="1" stop-color="#38bdf8"/></linearGradient><linearGradient id="linear-gradient-7" x1="0.39" y1="450.41" x2="1.39" y2="449.41" gradientTransform="matrix(330, 0, 0, -135, -65.77, 61039.82)" xlink:href="#linear-gradient"/><linearGradient id="linear-gradient-8" x1="0.39" y1="450.41" x2="1.39" y2="449.41" gradientTransform="matrix(330, 0, 0, -135, -65.77, 61039.82)" xlink:href="#linear-gradient-2"/><linearGradient id="linear-gradient-9" x1="0.41" y1="450.42" x2="1.44" y2="449.39" gradientTransform="matrix(330, 0, 0, -135, 309.23, 61039.82)" xlink:href="#linear-gradient"/><linearGradient id="linear-gradient-10" x1="0.42" y1="450.41" x2="1.43" y2="449.4" gradientTransform="matrix(330, 0, 0, -135, 309.23, 61039.82)" xlink:href="#linear-gradient-2"/><linearGradient id="linear-gradient-11" x1="0.41" y1="450.41" x2="1.41" y2="449.41" gradientTransform="matrix(330, 0, 0, -135, 684.23, 61039.82)" xlink:href="#linear-gradient"/><linearGradient id="linear-gradient-12" x1="0.41" y1="450.41" x2="1.41" y2="449.41" gradientTransform="matrix(330, 0, 0, -135, 684.23, 61039.82)" xlink:href="#linear-gradient-2"/><linearGradient id="linear-gradient-13" x1="-4.03" y1="448.87" x2="-3.03" y2="447.87" gradientTransform="matrix(40, 0, 0, -40, 236.23, 18307.82)" xlink:href="#linear-gradient-6"/></defs><title>mage-mirror-header</title><rect class="cls-1" x="537.73" y="60.32" width="620" height="150"/><rect class="cls-2" width="1200" height="450"/><path class="cls-3" d="M860.19,153.5h60.62c10.05,0,18.19,6.72,18.19,15h0c0,8.28-8.14,16-18.19,16H860.19c-10.05,0-18.19-7.72-18.19-16h0C842,160.22,850.14,153.5,860.19,153.5Z" transform="translate(-0.77 -0.18)"/><g class="cls-4"><line class="cls-5" x1="3" y1="90" x2="1203" y2="90"/><line class="cls-5" x1="3" y1="180" x2="1203" y2="180"/><line class="cls-5" x1="3" y1="270" x2="1203" y2="270"/><line class="cls-5" x1="3" y1="360" x2="1203" y2="360"/><line class="cls-5" x1="303" x2="303" y2="450"/><line class="cls-5" x1="603" x2="603" y2="450"/><line class="cls-5" x1="903" x2="903" y2="450"/></g><rect class="cls-6" x="63" y="60" width="450" height="150"/><circle class="cls-7" cx="89" cy="88" r="5"/><circle class="cls-8" cx="107" cy="88" r="5"/><path class="cls-3" d="M739.56,153.5h61.88c10.25,0,18.56,6.72,18.56,15h0c0,8.28-8.31,16-18.56,16H739.56c-10.25,0-18.56-7.72-18.56-16h0C721,160.22,729.31,153.5,739.56,153.5Z" transform="translate(-0.77 -0.18)"/><circle class="cls-9" cx="125" cy="88" r="5"/><text class="cls-10" transform="translate(89 136)">./_mage-mirro<tspan class="cls-11" x="136.92" y="0">r</tspan><tspan x="143.04" y="0">.sh</tspan></text><rect class="cls-12" x="343" y="112" width="14" height="24"/><text class="cls-13" transform="translate(74 176)">One command. Full Magento + <tspan class="cls-14" x="252.62" y="0">W</tspan><tspan x="268.95" y="0">arden + Hyvä stack.</tspan></text><path class="cls-15" d="M608.66,98.92,581.27,114l-27.5-15.07v34.32l27.5,15.4,27.5-15.4V98.92ZM562.9,115.2l18.37,10.23v18.7L562.9,133.9Zm36.74,18.7-18.37,10.23v-18.7l18.37-10.23Z" transform="translate(-0.77 -0.18)"/><text class="cls-13" transform="translate(623 123)">Magento</text><path class="cls-16" d="M785.77,86.18h96a22,22,0,0,1,22,22h0a22,22,0,0,1-22,22h-96a22,22,0,0,1-22-22h0A22,22,0,0,1,785.77,86.18Z" transform="translate(-0.77 -0.18)"/><text class="cls-17" transform="translate(806 115)"><tspan class="cls-18">H</tspan><tspan class="cls-19" x="14.19" y="0">Y</tspan><tspan class="cls-20" x="26.73" y="0">V</tspan><tspan x="37.75" y="0">Ä</tspan></text><path class="cls-3" d="M638.77,154.18h50a15,15,0,0,1,15,15h0c0,8.29-6.71,16-15,16h-50c-8.28,0-15-7.71-15-16h0A15,15,0,0,1,638.77,154.18Z" transform="translate(-0.77 -0.18)"/><text class="cls-21" transform="translate(648 176)">PH<tspan class="cls-22" x="19.45" y="0">P</tspan></text><text class="cls-21" transform="translate(744 175)"><tspan class="cls-14">W</tspan><tspan x="12.69" y="0">arden</tspan></text><text class="cls-21" transform="translate(868 174)">Docker</text><rect class="cls-23" x="63" y="235" width="330" height="135"/><text class="cls-13" transform="translate(81 272)">Clone &amp; mirror</text><text class="cls-24" transform="translate(81 306)">Local or remote Magento sites</text><text class="cls-24" transform="translate(81 335)">via SSH, rsync, and dumps.</text><rect class="cls-25" x="438" y="235" width="352.23" height="134.82"/><text class="cls-13" transform="translate(453 272)">Upgrade safely</text><text class="cls-24" transform="translate(453 307)">Rehearse Magento core upgrades</text><text class="cls-24" transform="translate(453 338)">without touching production.</text><rect class="cls-26" x="819" y="235" width="330" height="135"/><text class="cls-13" transform="translate(847 272)">Multi-store ready</text><text class="cls-24" transform="translate(847 304)">mage.test · app.mage.test</text><text class="cls-24" transform="translate(847 335)">Host-based routing pre-wired.</text><g class="cls-27"><circle class="cls-28" cx="95" cy="373" r="20"/></g><text class="cls-29" transform="translate(153 385)">mage<tspan class="cls-30" x="109.29" y="0">-</tspan><tspan class="cls-31" x="128.29" y="0">mi</tspan><tspan class="cls-32" x="177.42" y="0">r</tspan><tspan class="cls-33" x="192.65" y="0">r</tspan><tspan x="207.23" y="0">or</tspan></text><text class="cls-24" transform="translate(153 421)">The fastest way to spin up Magento + <tspan class="cls-14" x="372.38" y="0">W</tspan><tspan x="392.33" y="0">arden + Hyvä — on macOS &amp; Linux.</tspan></text></svg>