<svg id="Layer_1" data-name="Layer 1" xmlns="http://www.w3.org/2000/svg" xmlns:xlink="http://www.w3.org/1999/xlink" viewBox="0 0 1200 450"><defs><style>.cls-1,.cls-23,.cls-25,.cls-26,.cls-6{stroke-width:1.4px;}.cls-1{fill:url(#linear-gradient);stroke:url(#linear-gradient-2);}.cls-2{fill:url(#linear-gradient-3);}.cls-3{fill:#111827;stroke:#4b5563;}.cls-4{opacity:0.12;}.cls-5{fill:none;stroke:#1f2937;}.cls-6{fill:url(#linear-gradient-4);stroke:url(#linear-gradient-5);}.cls-7{fill:#f97373;}.cls-8{fill:#facc15;}.cls-9{fill:#4ade80;}.cls-10,.cls-13,.cls-17,.cls-21,.cls-24,.cls-29{isolation:isolate;}.cls-10,.cls-17,.cls-24{font-size:22px;}.cls-10,.cls-12,.cls-13,.cls-17,.cls-21,.cls-29{fill:#e5e7eb;}.cls-10{font-family:Helvetica;}.cls-11{letter-spacing:-0.05em;}.cls-13{font-size:18px;}.cls-13,.cls-21,.cls-24{font-family:ArialMT, Arial;}.cls-14{letter-spacing:-0.04em;}.cls-15{fill:#f26322;}.cls-16{fill:url(#linear-gradient-6);}.cls-17,.cls-29{font-family:MyriadPro-Regular, Myriad Pro;}.cls-18{letter-spacing:-0.01em;}.cls-19{letter-spacing:0.03em;}.cls-20{letter-spacing:-0.06em;}.cls-21{font-size:14px;}.cls-22{letter-spacing:-0.02em;}.cls-23{fill:url(#linear-gradient-7);stroke:url(#linear-gradient-8);}.cls-24{fill:#9ca3af;}.cls-25{fill:url(#linear-gradient-9);stroke:url(#linear-gradient-10);}.cls-26{fill:url(#linear-gradient-11);stroke:url(#linear-gradient-12);}.cls-27{opacity:0.7;}.cls-28{fill:url(#linear-gradient-13);}.cls-29{font-size:46px;}.cls-30{font-family:ArialHebrew-Bold, Arial Hebrew;font-weight:700;}.cls-31{letter-spacing:0em;}.cls-32{letter-spacing:0em;}.cls-33{letter-spacing:-0.01em;}</style><linearGradient id="linear-gradient" x1="0.75" y1="450.71" x2="1.75" y2="449.71" gradientTransform="matrix(620, 0, 0, -150, 105, 67630)" gradientUnits="userSpaceOnUse"><stop offset="0" stop-color="#111827" stop-opacity="0.9"/><stop offset="1" stop-color="#020617" stop-opacity="0.85"/></linearGradient><linearGradient id="linear-gradient-2" x1="0.75" y1="450.71" x2="1.75" y2="449.71" gradientTransform="matrix(620, 0, 0, -150, 105, 67630)" gradientUnits="userSpaceOnUse"><stop offset="0" stop-color="#38bdf8" stop-opacity="0.4"/><stop offset="1" stop-color="#6366f1" stop-opacity="0.2"/></linearGradient><linearGradient id="linear-gradient-3" x1="-204.23" y1="371.82" x2="995.77" y2="-78.18" gradientTransform="matrix(1, 0, 0, -1, 204, 371)" gradientUnits="userSpaceOnUse"><stop offset="0" stop-color="#020617"/><stop offset="0.5" stop-color="#020617"/><stop offset="1" stop-color="#0f172a"/></linearGradient><linearGradient id="linear-gradient-4" x1="0.55" y1="450.71" x2="1.55" y2="449.71" gradientTransform="matrix(450, 0, 0, -150, -185, 67630)" xlink:href="#linear-gradient"/><linearGradient id="linear-gradient-5" x1="0.55" y1="450.71" x2="1.55" y2="449.71" gradientTransform="matrix(450, 0, 0, -150, -185, 67630)" xlink:href="#linear-gradient-2"/><linearGradient id="linear-gradient-6" x1="-0.08" y1="450.02" x2="0.92" y2="449.02" gradientTransform="matrix(140, 0, 0, -44, 825, 19850)" gradientUnits="userSpaceOnUse"><stop offset="0" stop-color="#1d4ed8"/><stop offset="1" stop-color="#38bdf8"/></linearGradient><linearGradient id="linear-gradient-7" x1="0.39" y1="450.68" x2="1.39" y2="449.68" gradientTransform="matrix(330, 0, 0, -135, -65, 61040)" xlink:href="#linear-gradient"/><linearGradient id="linear-gradient-8" x1="0.39" y1="450.68" x2="1.39" y2="449.68" gradientTransform="matrix(330, 0, 0, -135, -65, 61040)" xlink:href="#linear-gradient-2"/><linearGradient id="linear-gradient-9" x1="0.41" y1="450.7" x2="1.44" y2="449.66" gradientTransform="matrix(330, 0, 0, -135, 310, 61040)" xlink:href="#linear-gradient"/><linearGradient id="linear-gradient-10" x1="0.42" y1="450.69" x2="1.43" y2="449.67" gradientTransform="matrix(330, 0, 0, -135, 310, 61040)" xlink:href="#linear-gradient-2"/><linearGradient id="linear-gradient-11" x1="0.41" y1="450.68" x2="1.41" y2="449.68" gradientTransform="matrix(330, 0, 0, -135, 685, 61040)" xlink:href="#linear-gradient"/><linearGradient id="linear-gradient-12" x1="0.41" y1="450.68" x2="1.41" y2="449.68" gradientTransform="matrix(330, 0, 0, -135, 685, 61040)" xlink:href="#linear-gradient-2"/><linearGradient id="linear-gradient-13" x1="-4.03" y1="448.77" x2="-3.03" y2="447.77" gradientTransform="matrix(40, 0, 0, -40, 237, 18308)" xlink:href="#linear-gradient-6"/></defs><title>Artboard 1</title><rect class="cls-1" x="572.5" y="23.5" width="620" height="150"/><rect class="cls-2" x="-0.23" y="-0.82" width="1200" height="450"/><path class="cls-3" d="M910.19,116.5h60.62c10.05,0,18.19,6.72,18.19,15h0c0,8.28-8.14,16-18.19,16H910.19c-10.05,0-18.19-7.72-18.19-16h0C892,123.22,900.14,116.5,910.19,116.5Z"/><g class="cls-4"><line class="cls-5" x1="53.77" y1="53.18" x2="1253.77" y2="53.18"/><line class="cls-5" x1="53.77" y1="143.18" x2="1253.77" y2="143.18"/><line class="cls-5" x1="53.77" y1="233.18" x2="1253.77" y2="233.18"/><line class="cls-5" x1="53.77" y1="323.18" x2="1253.77" y2="323.18"/><line class="cls-5" x1="353.77" y1="-36.82" x2="353.77" y2="413.18"/><line class="cls-5" x1="653.77" y1="-36.82" x2="653.77" y2="413.18"/><line class="cls-5" x1="953.77" y1="-36.82" x2="953.77" y2="413.18"/></g><rect class="cls-6" x="63.77" y="23.18" width="450" height="150"/><circle class="cls-7" cx="89.77" cy="51.18" r="5"/><circle class="cls-8" cx="107.77" cy="51.18" r="5"/><path class="cls-3" d="M789.56,116.5h61.88c10.25,0,18.56,6.72,18.56,15h0c0,8.28-8.31,16-18.56,16H789.56c-10.25,0-18.56-7.72-18.56-16h0C771,123.22,779.31,116.5,789.56,116.5Z"/><circle class="cls-9" cx="125.77" cy="51.18" r="5"/><text class="cls-10" transform="translate(89.77 99.18)">./_mage-mirro<tspan class="cls-11" x="136.92" y="0">r</tspan><tspan x="143.04" y="0">.sh</tspan></text><rect class="cls-12" x="343.77" y="75.18" width="14" height="24"/><text class="cls-13" transform="translate(74.77 139.18)">One command. Full Magento + <tspan class="cls-14" x="252.62" y="0">W</tspan><tspan x="268.95" y="0">arden + Hyvä stack.</tspan></text><path class="cls-15" d="M658.66,61.92,631.27,77l-27.5-15.07V96.24l27.5,15.4,27.5-15.4V61.92ZM612.9,78.2l18.37,10.23v18.7L612.9,96.9Zm36.74,18.7-18.37,10.23V88.43L649.64,78.2Z"/><text class="cls-13" transform="translate(673.77 86.18)">Magento</text><path class="cls-16" d="M835.77,49.18h96a22,22,0,0,1,22,22h0a22,22,0,0,1-22,22h-96a22,22,0,0,1-22-22h0A22,22,0,0,1,835.77,49.18Z"/><text class="cls-17" transform="translate(856.77 78.18)"><tspan class="cls-18">H</tspan><tspan class="cls-19" x="14.19" y="0">Y</tspan><tspan class="cls-20" x="26.73" y="0">V</tspan><tspan x="37.75" y="0">Ä</tspan></text><path class="cls-3" d="M688.77,117.18h50a15,15,0,0,1,15,15h0c0,8.29-6.71,16-15,16h-50c-8.28,0-15-7.71-15-16h0A15,15,0,0,1,688.77,117.18Z"/><text class="cls-21" transform="translate(698.77 139.18)">PH<tspan class="cls-22" x="19.45" y="0">P</tspan></text><text class="cls-21" transform="translate(794.77 138.18)"><tspan class="cls-14">W</tspan><tspan x="12.69" y="0">arden</tspan></text><text class="cls-21" transform="translate(918.77 137.18)">Docker</text><rect class="cls-23" x="63.77" y="198.18" width="330" height="135"/><text class="cls-13" transform="translate(81.77 235.18)">Clone &amp; mirror</text><text class="cls-24" transform="translate(81.77 269.18)">Local or remote Magento sites</text><text class="cls-24" transform="translate(81.77 298.18)">via SSH, rsync, and dumps.</text><rect class="cls-25" x="438.77" y="198.18" width="352.23" height="134.82"/><text class="cls-13" transform="translate(453.77 235.18)">Upgrade safely</text><text class="cls-24" transform="translate(453.77 270.18)">Rehearse Magento core upgrades</text><text class="cls-24" transform="translate(453.77 301.18)">without touching production.</text><rect class="cls-26" x="819.77" y="198.18" width="330" height="135"/><text class="cls-13" transform="translate(847.77 235.18)">Multi-store ready</text><text class="cls-24" transform="translate(847.77 267.18)">mage.test · app.mage.test</text><text class="cls-24" transform="translate(847.77 298.18)">Host-based routing pre-wired.</text><g class="cls-27"><circle class="cls-28" cx="95.77" cy="377.18" r="20"/></g><text class="cls-29" transform="translate(153.77 389.18)">mage<tspan class="cls-30" x="109.29" y="0">-</tspan><tspan class="cls-31" x="128.29" y="0">mi</tspan><tspan class="cls-32" x="177.42" y="0">r</tspan><tspan class="cls-33" x="192.65" y="0">r</tspan><tspan x="207.23" y="0">or</tspan></text><text class="cls-24" transform="translate(153.77 425.18)">The fastest way to spin up Magento + <tspan class="cls-14" x="372.38" y="0">W</tspan><tspan x="392.33" y="0">arden + Hyvä — on macOS &amp; Linux.</tspan></text></svg>